#!OML:ASF F:\VICON\USERDATA\INSTALL\rory3\rory3.ASF
:FULLY-SPECIFIED
:DEGREES
560
root -0.304041 18.2308 2.32234 -179.156 57.7047 180.197
lowerback 8.22445 0.194432 -4.13437
upperback -0.897747 -0.149754 0.0167681
thorax -5.5498 0.0565194 2.36281
lowerneck -16.6924 -9.27146 -13.9279
upperneck 32.5016 -11.9992 11.035
head 15.9945 -4.96052 4.925
rclavicle -5.39576e-014 3.97569e-016
rhumerus -35.5425 -5.97849 -84.6052
rradius 39.4538
rwrist 3.14463
rhand -15.128 9.68236
rfingers 7.12502
rthumb 11.0413 -20.0072
lclavicle -5.39576e-014 3.97569e-016
lhumerus -38.9823 1.48576 82.7318
lradius 31.6717
lwrist -5.70476
lhand -17.7084 24.668
lfingers 7.12502
lthumb 8.55176 54.4748
rfemur -8.67319 -18.4377 18.8828
rtibia 31.3299
rfoot -12.2728 -17.1101
rtoes 0.561898
lfemur 0.573484 9.13871 -24.354
ltibia 9.17236
lfoot -5.05931 35.1295
ltoes 13.818
561
root -0.285927 18.2262 2.34914 -178.963 58.3902 180.345
lowerback 8.0427 0.20799 -3.99536
upperback -0.999911 -0.116275 -0.0541136
thorax -5.55652 0.0688694 2.20562
lowerneck -16.4251 -9.28641 -13.8608
upperneck 32.4754 -12.0978 11.1019
head 15.9363 -4.99196 4.92823
rclavicle 3.85145e-014 -3.57812e-015
rhumerus -35.8812 -6.40028 -84.4514
rradius 39.527
rwrist 2.88274
rhand -14.8351 9.98469
rfingers 7.12502
rthumb 11.3238 -19.6896
lclavicle 3.85145e-014 -3.57812e-015
lhumerus -39.0247 1.27081 82.4917
lradius 31.7468
lwrist -5.73836
lhand -17.6725 24.5717
lfingers 7.12502
lthumb 8.58636 54.3771
rfemur -8.11493 -17.5963 19.195
rtibia 30.0163
rfoot -12.6189 -17.4575
rtoes 1.217
lfemur 0.199512 9.01326 -24.1781
ltibia 9.86124
lfoot -5.79184 35.7541
ltoes 14.9321
562
root -0.270975 18.2228 2.37574 -178.929 59.0905 180.302
lowerback 7.82026 0.22608 -3.82138
upperback -1.04735 -0.0750046 -0.23623
thorax -5.4827 0.080423 1.91168
lowerneck -16.151 -9.3033 -13.7502
upperneck 32.3529 -12.2504 11.2803
head 15.8457 -5.02888 4.9574
rclavicle -3.1321e-014 -9.93923e-015
rhumerus -36.1541 -6.71054 -84.5144
rradius 39.5917
rwrist 2.75864
rhand -14.9698 9.88049
rfingers 7.12502
rthumb 11.1939 -19.8009
lclavicle -3.1321e-014 -9.93923e-015
lhumerus -38.8732 0.791666 82.2077
lradius 31.7325
lwrist -5.47919
lhand -17.8155 24.6648
lfingers 7.12502
lthumb 8.44843 54.4758
rfemur -7.62839 -16.9599 19.3712
rtibia 28.8106
rfoot -12.8952 -17.5228
rtoes 2.07302
lfemur -0.153126 8.90173 -24.1032
ltibia 10.4541
lfoot -6.15153 36.4002
ltoes 15.1842
563
root -0.256107 18.2175 2.40403 -179.19 59.8209 179.915
lowerback 7.63929 0.211325 -3.91925
upperback -1.10644 -0.103591 -0.380779
thorax -5.44063 0.0675594 1.81891
lowerneck -16.0296 -9.25822 -13.5985
upperneck 32.3233 -12.2351 11.2397
head 15.7813 -5.01508 4.91738
rclavicle -1.01703e-013 -4.77083e-015
rhumerus -36.3468 -6.72539 -84.6045
rradius 39.475
rwrist 2.87908
rhand -15.5096 9.6077
rfingers 7.12502
rthumb 10.6732 -20.1012
lclavicle -1.01703e-013 -4.77083e-015
lhumerus -38.8273 0.462749 82.0187
lradius 31.7779
lwrist -5.21455
lhand -17.8082 24.7197
lfingers 7.12502
lthumb 8.45543 54.5304
rfemur -7.2046 -16.2462 19.3812
rtibia 27.7524
rfoot -13.2701 -17.617
rtoes 3.50168
lfemur -0.449933 9.12904 -24.2292
ltibia 10.9402
lfoot -6.55885 36.7289
ltoes 15.6711
564
root -0.238458 18.212 2.42824 -179.495 60.4939 179.481
lowerback 7.45921 0.157962 -4.09078
upperback -1.18353 -0.187358 -0.455158
thorax -5.41455 0.0312381 1.84732
lowerneck -15.9926 -9.20552 -13.4785
upperneck 32.374 -12.1533 11.083
head 15.7561 -4.98922 4.84695
rclavicle 2.73329e-016 -1.51076e-014
rhumerus -36.5365 -6.55456 -84.6544
rradius 39.3737
rwrist 2.94905
rhand -16.062 9.05484
rfingers 7.12502
rthumb 10.1403 -20.6808
lclavicle 2.73329e-016 -1.51076e-014
lhumerus -38.8355 0.748271 81.737
lradius 31.8046
lwrist -5.33841
lhand -17.477 24.4666
lfingers 7.12502
lthumb 8.77503 54.2641
rfemur -6.83851 -15.477 19.4035
rtibia 26.842
rfoot -13.5797 -18.0062
rtoes 3.93808
lfemur -0.650552 9.34193 -24.3896
ltibia 11.2753
lfoot -6.88093 37.0239
ltoes 16.1904
565
root -0.21638 18.2087 2.45342 -179.671 61.2753 179.221
lowerback 7.27617 0.201779 -4.18287
upperback -1.26307 -0.13398 -0.541093
thorax -5.39779 0.0602165 1.80253
lowerneck -15.8742 -9.21813 -13.4262
upperneck 32.4057 -12.203 11.0686
head 15.7462 -5.00926 4.82578
rclavicle -1.82633e-014 -1.63003e-014
rhumerus -36.7848 -6.42994 -84.737
rradius 39.3664
rwrist 2.88997
rhand -16.3498 8.33018
rfingers 7.12502
rthumb 9.86269 -21.4188
lclavicle -1.82633e-014 -1.63003e-014
lhumerus -38.8286 0.854411 81.4633
lradius 31.8839
lwrist -5.34606
lhand -17.415 24.7435
lfingers 7.12502
lthumb 8.83484 54.5386
rfemur -6.49953 -14.8627 19.5072
rtibia 26.0042
rfoot -13.5713 -18.2729
rtoes 2.99213
lfemur -0.759455 9.66669 -24.4359
ltibia 11.5304
lfoot -6.35582 37.2655
ltoes 14.9101
566
root -0.196642 18.2066 2.48923 -179.837 62.1022 179.027
lowerback 7.24024 0.250319 -4.353
upperback -1.30581 -0.0844164 -0.552379
thorax -5.42586 0.0911828 1.88029
lowerneck -16.0022 -9.21914 -13.3923
upperneck 32.5122 -12.1847 10.9738
head 15.8128 -5.00718 4.783
rclavicle -7.76378e-014 -1.59028e-015
rhumerus -36.8424 -6.87158 -84.557
rradius 39.1105
rwrist 3.59238
rhand -16.1961 8.11811
rfingers 7.12502
rthumb 10.011 -21.6238
lclavicle -7.76378e-014 -1.59028e-015
lhumerus -38.7842 0.910817 81.2958
lradius 32.0242
lwrist -5.21452
lhand -17.7711 25.1328
lfingers 7.12502
lthumb 8.49129 54.9421
rfemur -6.16161 -14.1289 19.6607
rtibia 25.164
rfoot -13.3534 -18.5337
rtoes 2.43723
lfemur -0.848618 9.98621 -24.4025
ltibia 11.79
lfoot -5.53177 37.547
ltoes 13.1085
567
root -0.181682 18.2074 2.52945 -179.792 62.8782 179.06
lowerback 7.23307 0.240426 -4.43676
upperback -1.27256 -0.100754 -0.476521
thorax -5.38587 0.0853282 2.00846
lowerneck -16.4515 -9.19865 -13.4203
upperneck 32.655 -12.0929 10.8863
head 15.967 -4.97476 4.7623
rclavicle -1.47846e-015 -1.47101e-014
rhumerus -36.7053 -6.79977 -84.5242
rradius 38.9025
rwrist 3.8418
rhand -16.208 7.55742
rfingers 7.12502
rthumb 9.99945 -22.1851
lclavicle -1.47846e-015 -1.47101e-014
lhumerus -38.5635 1.22756 81.15
lradius 32.1344
lwrist -5.13647
lhand -17.9042 25.2623
lfingers 7.12502
lthumb 8.36279 55.0768
rfemur -5.86467 -12.9194 20.0245
rtibia 24.3023
rfoot -13.0409 -19.3134
rtoes 1.81975
lfemur -1.03255 10.1353 -24.2431
ltibia 12.1394
lfoot -5.86908 38.0286
ltoes 13.5244
568
root -0.17107 18.2141 2.57026 -179.471 63.6026 179.356
lowerback 7.21446 0.236261 -4.34991
upperback -1.27009 -0.0953587 -0.418532
thorax -5.37281 0.0854482 2.01958
lowerneck -16.6543 -9.19355 -13.467
upperneck 32.6473 -12.0931 10.9686
head 16.0233 -4.96936 4.80046
rclavicle 4.34841e-014 1.78906e-014
rhumerus -36.6686 -6.50224 -84.6905
rradius 38.823
rwrist 3.65972
rhand -16.4836 6.31583
rfingers 7.12502
rthumb 9.73364 -23.4392
lclavicle 4.34841e-014 1.78906e-014
lhumerus -38.3377 1.55858 80.9272
lradius 32.2317
lwrist -5.22689
lhand -17.5576 25.2405
lfingers 7.12502
lthumb 8.69727 55.0414
rfemur -5.60484 -11.4229 20.5566
rtibia 23.4624
rfoot -12.859 -20.271
rtoes 2.67039
lfemur -1.32813 10.1953 -23.9677
ltibia 12.5731
lfoot -6.83246 38.5637
ltoes 14.7268
